<svg xmlns="http://www.w3.org/2000/svg" width="24" height="24" viewBox="0 0 24 24" aria-hidden="true">
  <circle cx="12" cy="12" r="12" fill="#25D366"/>
  <path d="M16.59 13.41l-1.2 1.2c-.3.3-.77.38-1.16.2-1.3-.6-2.53-1.5-3.68-2.64-1.15-1.15-2.04-2.38-2.64-3.68-.18-.39-.1-.86.2-1.16l1.2-1.2c.39-.39.39-1.02 0-1.41L7.05 3.05c-.39-.39-1.02-.39-1.41 0L3.8 4.89C3.06 5.63 2.82 6.74 3.18 7.72c.86 2.31 2.32 4.58 4.37 6.63 2.05 2.05 4.32 3.51 6.63 4.37.98.36 2.09.12 2.83-.62l1.84-1.84c.39-.39.39-1.02 0-1.41l-1.23-1.23c-.38-.38-1.02-.38-1.41 0z" fill="#fff"/>
</svg>
